<?xml version="1.0" standalone="no"?>
<!DOCTYPE svg PUBLIC "-//W3C//DTD SVG 1.1//EN" "http://www.w3.org/Graphics/SVG/1.1/DTD/svg11.dtd" >
<svg>
<metadata>
Created by FontForge 20090914 at Fri Feb 24 11:15:40 2012
 By root
Copyright (c) 2010 by Nate Piekos. Blambot.com. All rights reserved.
</metadata>
<defs>
<font id="WorldsAtWarBB" horiz-adv-x="382" >
  <font-face 
    font-family="WorldsAtWar BB"
    font-weight="400"
    font-stretch="normal"
    units-per-em="1000"
    panose-1="2 0 5 6 0 0 0 2 0 4"
    ascent="750"
    descent="-250"
    x-height="421"
    cap-height="600"
    bbox="-40 -184 659 748"
    underline-thickness="50"
    underline-position="-50"
    unicode-range="U+0020-U+2122"
  />
<missing-glyph horiz-adv-x="356" 
d="M43 566h271v-564h-271v564zM141 38h84v495h-84v-495z" />
    <glyph glyph-name="copyright" unicode="&#x28;C&#x29;" horiz-adv-x="658" 
d="M544 604q38 0 64 -26.5t26 -64.5v-421q0 -38 -26 -64.5t-64 -26.5h-422q-37 0 -63.5 26.5t-26.5 64.5v421q0 38 26.5 64.5t63.5 26.5h422zM192 419q0 32 18 45t41 13l166 1q24 0 40.5 -15.5t15.5 -45.5v-98h-118q-1 15 -1 23t-2 12t-6 4.5t-13 0.5t-14 -0.5t-7.5 -5
t-2.5 -14.5v-28v-35t2 -20t7 -9.5t15 -2.5h141v-117h-221q-34 0 -47 17.5t-13 41.5zM122 526q-13 0 -13 -13v-421q0 -13 13 -13h422q13 0 13 13v421q0 13 -13 13h-422z" />
    <glyph glyph-name="registered" unicode="&#x28;R&#x29;" horiz-adv-x="659" 
d="M540 604q38 0 64 -26.5t26 -64.5v-421q0 -38 -26 -64.5t-64 -26.5h-422q-38 0 -64 26.5t-26 64.5v421q0 38 26 64.5t64 26.5h422zM217 488q42 0 82 0.5t82 0.5q34 0 46.5 -15.5t12.5 -36.5v-92q-1 -17 -10.5 -28t-23.5 -15q14 -5 23.5 -16.5t11.5 -27.5v-141h-88l1 112
q0 32 -9.5 32t-24.5 -10l-1 -135l-86 1v284h-16v87zM321 337q23 11 28 17t5 20q0 13 -1 18.5t-4 7.5t-10 1.5t-19 -0.5zM118 526q-13 0 -13 -13v-421q0 -13 13 -13h422q13 0 13 13v421q0 13 -13 13h-422z" />
    <glyph glyph-name=".notdef" horiz-adv-x="356" 
d="M43 566h271v-564h-271v564zM141 38h84v495h-84v-495z" />
    <glyph glyph-name=".null" horiz-adv-x="0" 
 />
    <glyph glyph-name="nonmarkingreturn" horiz-adv-x="202" 
 />
    <glyph glyph-name="space" unicode=" " horiz-adv-x="202" 
 />
    <glyph glyph-name="space" unicode="&#xa0;" horiz-adv-x="202" 
 />
    <glyph glyph-name="one" unicode="1" horiz-adv-x="239" 
d="M207 -2l-141 1l-1 458l-50 2l39 142l153 -1v-602z" />
    <glyph glyph-name="two" unicode="2" horiz-adv-x="354" 
d="M31 -2l-1 234q0 19 0.5 31t4 20t12 14.5t24.5 14.5q28 14 61.5 27t61.5 27q2 11 2.5 21.5t-0.5 21.5q-1 16 -3.5 25.5t-8 14.5t-14.5 6.5t-24 1.5h-49t-37 -1v143h115q27 0 43 -1.5t27.5 -6.5t20.5 -13.5t21 -22.5q17 -20 31 -42.5t15 -40.5q1 -13 1.5 -33.5t0.5 -43
t-1 -43t-2 -33.5q-2 -20 -5.5 -30t-9.5 -18q-10 -10 -28.5 -19.5t-39 -18l-40.5 -16.5t-32 -15v-64l135 -1l3 -141z" />
    <glyph glyph-name="three" unicode="3" horiz-adv-x="334" 
d="M21 139q53 0 83 -1t45 2t19 12t4 29q0 8 -0.5 14t-1.5 11q-2 18 -7 24.5t-16 6t-30.5 -7.5t-50.5 -17v138q48 16 77 29.5t29 36.5q0 19 -5 28.5t-20.5 12.5t-45.5 2.5t-80 -0.5v142h194q27 0 45.5 -7t30 -18t16 -26.5t4.5 -31.5v-150q-1 -26 -16 -45t-39 -24
q24 -8 39 -27t17 -45v-154q0 -10 -3.5 -23t-13 -24.5t-26 -19.5t-41.5 -8h-207v141z" />
    <glyph glyph-name="four" unicode="4" horiz-adv-x="387" 
d="M361 600l-1 -601l-141 -1v141h-217l53 390h141l-34 -250h57l1 321h141z" />
    <glyph glyph-name="five" unicode="5" horiz-adv-x="349" 
d="M310 601q0 -35 -0.5 -70.5t-1.5 -70.5l-135 -1l-1 -64q12 -8 32 -15.5t40.5 -16t39 -18t28.5 -19.5q7 -8 10.5 -18t5.5 -30q1 -13 1.5 -31.5t0.5 -38t-0.5 -38t-0.5 -31.5q-1 -19 -15 -41t-32 -42l-21 -25t-20.5 -18.5t-27.5 -11t-43 -3.5q-12 0 -27 -0.5l-31 -1
t-31 -0.5t-26 2v143q12 -1 37.5 -1h49.5q15 0 24 1.5t14 6.5t7.5 14.5t4.5 25.5q1 11 0.5 21.5t-2.5 21.5q-28 14 -61.5 27t-61.5 27q-16 8 -24.5 14.5t-12 14.5t-4 20t-0.5 31v234z" />
    <glyph glyph-name="six" unicode="6" horiz-adv-x="391" 
d="M29 531q0 11 4 23t13 22.5t23.5 17.5t35.5 7h235v-141h-170v-43q34 0 67 -0.5t67 -0.5q19 0 31.5 -6t19 -16.5t9 -24t2.5 -27.5v-275q-1 -28 -15 -48.5t-50 -20.5l-202 1q-41 0 -55.5 21.5t-14.5 47.5v463zM168 139q22 0 33.5 0.5t16.5 7t5.5 21l1.5 41.5q0 33 -4.5 50
t-21.5 17h-29z" />
    <glyph glyph-name="seven" unicode="7" horiz-adv-x="317" 
d="M309 600l-68 -601l-141 -1l57 461h-148v141h300z" />
    <glyph glyph-name="eight" unicode="8" horiz-adv-x="378" 
d="M24 528q0 21 6 35t16.5 22t24 11.5t28.5 3.5h97t96 1q11 0 23 -5t22.5 -14t17 -22.5t6.5 -31.5v-138q0 -16 -13 -35.5t-37 -27.5q13 -4 22.5 -13t15.5 -20t9 -22.5t3 -21.5v-181q0 -27 -16.5 -48.5t-54.5 -21.5q-48 0 -96 -0.5t-96 -0.5q-32 0 -53 18.5t-21 52.5v183
q0 18 13 40t39 31q-26 8 -39 28t-13 36v141zM191 389q13 0 19 3t8 7.5t2 10.5v12q0 26 -4.5 31.5t-23.5 5.5t-23 -5.5t-4 -31.5q0 -7 -0.5 -13t1 -10.5t7.5 -7t18 -2.5zM192 248q-13 0 -18.5 -3.5t-7.5 -10.5t-1.5 -18t0.5 -26q0 -18 1 -28.5t4 -15.5t8.5 -6t13.5 -1
q9 0 14.5 1t8.5 6.5t4 15.5t1 28q0 15 0.5 26t-1.5 18t-8 10.5t-19 3.5z" />
    <glyph glyph-name="nine" unicode="9" horiz-adv-x="383" 
d="M363 67q0 -11 -4 -23t-12.5 -22.5t-23 -17.5t-35.5 -7h-236v141h171v44h-135q-20 0 -31.5 6t-18.5 16.5t-9 24t-2 27.5l-1 275q1 28 15 48.5t50 20.5h203q20 0 33.5 -6t21.5 -16t11 -22.5t3 -25.5v-463zM224 460q-22 0 -33.5 -1t-16.5 -7.5t-5.5 -21l-1.5 -41.5
q0 -33 4.5 -49.5t21.5 -16.5h30z" />
    <glyph glyph-name="A" unicode="A" horiz-adv-x="371" 
d="M309 600l57 -602h-141l-7 90h-63l-8 -90h-141l54 602h249zM167 229h39l-20 227z" />
    <glyph glyph-name="B" unicode="B" horiz-adv-x="385" 
d="M6 600q67 0 132.5 0.5t132.5 0.5q27 0 45.5 -7t30 -18t16 -26.5t4.5 -31.5v-150q-1 -26 -16.5 -45t-38.5 -24q23 -8 38.5 -27t17.5 -45v-154q0 -10 -3.5 -23t-13 -24.5t-26 -19.5t-41.5 -8h-253v461h-25v141zM172 139q19 0 30.5 -1t16.5 2t6.5 12t1.5 29q0 26 -4 38
t-11 14t-17.5 -3.5t-22.5 -13.5v-77zM173 355q19 9 30 15t16.5 12.5t6.5 14t1 19.5q0 20 -1 29.5t-6.5 12.5t-16.5 2t-31 -1z" />
    <glyph glyph-name="C" unicode="C" 
d="M25 528q0 42 23 57t53 15l261 -1v-290h-141v150h-27q-10 0 -15.5 -1t-8.5 -4.5t-3.5 -11t-0.5 -20.5v-241q0 -27 5 -34.5t22 -7.5h169v-140l-262 -1q-33 0 -54 18.5t-21 52.5v459v0z" />
    <glyph glyph-name="D" unicode="D" horiz-adv-x="397" 
d="M12 459v141h147t147 1q10 0 22 -5t22.5 -14t17 -22.5t6.5 -31.5v-365q0 -36 -13.5 -66t-34.5 -51.5t-47 -34t-52 -12.5h-189v460h-26zM191 139q18 0 30.5 18.5t12.5 46.5v218q0 19 -3.5 28t-25.5 9h-27v-321z" />
    <glyph glyph-name="E" unicode="E" horiz-adv-x="320" 
d="M297 600v-141h-129v-69h130v-141h-130v-110h129v-141h-174q-27 0 -45.5 8.5t-30 20.5t-16.5 26.5t-5 26.5l1 520h270z" />
    <glyph glyph-name="F" unicode="F" horiz-adv-x="312" 
d="M297 600v-141h-129v-69h129v-141h-129v-251l-141 1l-1 601h271z" />
    <glyph glyph-name="G" unicode="G" 
d="M25 528q0 42 23 57t53 15l226 1v-142h-133q-10 0 -15.5 -1t-8.5 -4.5t-3.5 -11t-0.5 -20.5v-241q0 -27 5 -34.5t22 -7.5h28l-1 110h-35v141q44 0 88 -0.5t87 -0.5l1 -391h-261q-33 0 -54 18.5t-21 52.5v459v0z" />
    <glyph glyph-name="H" unicode="H" horiz-adv-x="393" 
d="M169 390h55v210h141v-602h-141v251h-55v-251h-141v602h141v-210z" />
    <glyph glyph-name="I" unicode="I" horiz-adv-x="196" 
d="M169 600v-602h-141v602h141z" />
    <glyph glyph-name="J" unicode="J" horiz-adv-x="285" 
d="M259 600v-532q0 -11 -4 -23t-13 -22.5t-23.5 -17.5t-35.5 -7h-172v141h107v461h141z" />
    <glyph glyph-name="K" unicode="K" horiz-adv-x="390" 
d="M27 600l143 1l-2 -212q0 -2 8.5 -3t19 3t19 15t7.5 33v163h139v-198q0 -26 -15.5 -45t-38.5 -24q23 -8 38.5 -27t17.5 -45l1 -263h-141v17v39.5t-0.5 50.5t-0.5 50.5v40v19.5q0 7 -0.5 14t-5 11.5t-16 6.5t-32.5 0q0 -58 1 -121.5t1 -127.5h-144z" />
    <glyph glyph-name="L" unicode="L" horiz-adv-x="306" 
d="M166 600v-461h131v-141h-271l-1 602h141z" />
    <glyph glyph-name="M" unicode="M" horiz-adv-x="476" 
d="M24 599l172 1l42 -186l42 186h172v-602h-141v270l-70 -243l-7 -1l-69 243v-269h-141v601z" />
    <glyph glyph-name="N" unicode="N" horiz-adv-x="385" 
d="M24 600l135 -1l61 -229v230h141v-602h-127l-69 225v-225h-141v602z" />
    <glyph glyph-name="O" unicode="O" 
d="M23 528q0 42 23 57t53 15h96t97 1q10 0 22 -5t22.5 -14t17 -22.5t6.5 -31.5v-459q0 -27 -16.5 -48.5t-54.5 -21.5q-48 0 -95.5 -0.5t-95.5 -0.5q-33 0 -54 18.5t-21 52.5v459zM187 139q19 0 25.5 7t6.5 34v242q0 26 -4 31.5t-23 5.5q-10 0 -15.5 -1t-8.5 -4.5t-3.5 -11
t-0.5 -20.5v-241q0 -27 4.5 -34.5t18.5 -7.5z" />
    <glyph glyph-name="P" unicode="P" horiz-adv-x="389" 
d="M12 600q69 0 137.5 0.5t137.5 0.5q20 0 36.5 -2.5t28 -10.5t17.5 -22t6 -38v-161q0 -29 -7.5 -45t-28.5 -31t-59.5 -33t-100.5 -50l-1 -210h-141v461h-25v141zM178 353q21 8 32 14.5t16 13.5t6 15.5t1 19.5q0 20 -1 29.5t-6.5 12.5t-16.5 2t-31 -1v-106z" />
    <glyph glyph-name="Q" unicode="Q" horiz-adv-x="375" 
d="M19 528q0 21 6 35t16.5 22t24 11.5t28.5 3.5h96.5t96.5 1q10 0 22 -5t22.5 -14t17 -22.5t6.5 -31.5v-450l57 -119h-141l-19 40q-40 0 -79.5 -0.5t-79.5 -0.5q-33 0 -53.5 18.5t-20.5 52.5v459zM182 139q23 0 28 7t5 34v242q0 26 -4.5 31.5t-23.5 5.5t-23.5 -5.5
t-4.5 -31.5v-241q0 -27 3 -34.5t20 -7.5z" />
    <glyph glyph-name="R" unicode="R" horiz-adv-x="392" 
d="M14 600q67 0 133 0.5t132 0.5q27 0 45.5 -7t30 -18t16 -26.5t4.5 -31.5v-150q-1 -26 -16.5 -45t-38.5 -24q23 -8 38.5 -27t17.5 -45v-228h-141v181q0 26 -4 37.5t-11 14t-17.5 -2.5t-22.5 -13l-1 -219l-140 1v461h-25v141zM182 355q19 9 29.5 15t16 12.5t6.5 14t1 19.5
q0 20 -1 29.5t-6.5 12.5t-16.5 2t-31 -1z" />
    <glyph glyph-name="S" unicode="S" horiz-adv-x="335" 
d="M21 140h26h30.5h30h24.5q15 0 24 1.5t14 6.5t7.5 14.5t4.5 25.5q1 11 0.5 21.5t-2.5 21.5q-28 14 -61.5 27t-61.5 27q-16 8 -24.5 14.5t-12.5 14.5t-4 20v31q0 18 2.5 41t6 46t8.5 44t10 36q7 21 12.5 32t14.5 17q8 5 21 10.5t32 6.5q22 2 52.5 2.5t57.5 0.5h65v-141
q-8 0 -26 -0.5t-37.5 -0.5h-37h-25.5q-3 -5 -5.5 -14t-4 -18.5t-1.5 -18.5t1 -13q12 -8 32 -15.5t40.5 -16t39 -18t28.5 -19.5q7 -8 10.5 -18t5.5 -30q1 -13 1.5 -31.5t0.5 -38t-0.5 -38t-0.5 -31.5q-2 -19 -11 -41t-26 -42l-21 -25t-20.5 -18.5t-27.5 -11t-43 -3.5h-29.5
h-40.5t-43 0.5t-36 0.5v141z" />
    <glyph glyph-name="T" unicode="T" horiz-adv-x="313" 
d="M12 600h294v-141h-77v-461h-140v461h-77v141z" />
    <glyph glyph-name="U" unicode="U" horiz-adv-x="385" 
d="M26 599h141v-418q0 -27 5 -34.5t22 -7.5q19 0 23.5 7t4.5 34v419h141v-530q0 -27 -16.5 -48.5t-54.5 -21.5q-48 0 -95.5 -0.5t-95.5 -0.5q-33 0 -54 18.5t-21 52.5v530z" />
    <glyph glyph-name="V" unicode="V" horiz-adv-x="371" 
d="M58 -2l-51 602h141l39 -458l39 458h141l-51 -602h-258z" />
    <glyph glyph-name="W" unicode="W" horiz-adv-x="518" 
d="M505 600l-34 -603l-168 1l-43 180l-31 -180h-175l-41 602h141l16 -307l85 279h8l85 -274l16 302h141z" />
    <glyph glyph-name="X" unicode="X" horiz-adv-x="397" 
d="M396 600l-119 -301l119 -301h-153l-42 107l-42 -107h-153l118 301l-118 301h153l42 -107l42 107h153z" />
    <glyph glyph-name="Y" unicode="Y" horiz-adv-x="374" 
d="M377 600l-119 -372v-230h-141v230l-117 372h153l35 -153l36 153h153z" />
    <glyph glyph-name="a" unicode="a" horiz-adv-x="378" 
d="M96 2q-26 0 -41 6.5t-22 17t-8.5 23t-1.5 25.5v109q0 14 2.5 27.5t9 24t18.5 17.5t31 8q6 0 27 0.5t44 0.5t42 0.5t21 1.5q4 3 6 9t1 13t-4.5 12t-9.5 6h-33h-83l-1 118h196q37 -1 52.5 -19.5t16.5 -54.5l1 -344zM219 115v49h-30q-10 0 -15 -7.5t-5 -17t5.5 -17
t17.5 -7.5h27z" />
    <glyph glyph-name="b" unicode="b" horiz-adv-x="378" 
d="M24 4l-1 601h141l1 -183q60 0 98.5 0.5t60 -5.5t29.5 -21.5t8 -47.5v-272q0 -47 -24 -60.5t-64 -12.5zM164 282v-138q19 0 30 0.5t16.5 4.5t7 12.5t1.5 25.5q0 10 0.5 27t0.5 23q0 21 -4.5 30t-12 12t-17.5 2.5t-22 0.5z" />
    <glyph glyph-name="c" unicode="c" horiz-adv-x="375" 
d="M19 351q0 39 21 55t50 16h197q29 0 48.5 -18t18.5 -55v-129h-141q-1 18 -1 29.5t-2 19t-7.5 10t-15.5 2.5q-11 0 -17 -1t-8.5 -6t-3 -17t-0.5 -34q0 -26 0.5 -41.5t2.5 -24t8.5 -11t18.5 -2.5h167v-140h-263q-41 0 -56.5 21t-15.5 49l-1 277v0z" />
    <glyph glyph-name="d" unicode="d" 
d="M115 3q-41 -1 -64.5 12.5t-23.5 60.5v272q0 28 8 42.5t29.5 21t60 7.5t98.5 3l1 183h141l-1 -601zM224 282q-13 -1 -23.5 -0.5t-18 -3t-11.5 -12.5t-4 -29v-53q0 -17 1.5 -25.5t7 -11.5t17 -3h31.5v138z" />
    <glyph glyph-name="e" unicode="e" 
d="M101 421h190q26 0 41 -8.5t22 -22t8.5 -28.5t1.5 -28v-102q0 -16 -1.5 -31.5t-7.5 -27.5t-18.5 -19.5t-34.5 -7.5q-41 -1 -66 0.5t-39.5 1.5t-20.5 -4t-7 -16q-2 -18 7.5 -20t32.5 -2h139l1 -104h-252q-37 2 -52.5 20t-16.5 55v273q0 23 7 37t18 21.5t24 10t24 2.5z
M195 304q-20 0 -23.5 -9t-3.5 -18v-31q6 0 15 -1t17 1q17 4 18.5 13t1.5 19q-1 10 -4.5 18t-20.5 8z" />
    <glyph glyph-name="f" unicode="f" horiz-adv-x="290" 
d="M164 3h-141v531q0 11 4 23.5t13 23t23.5 17t35.5 6.5h172v-140h-107v-90h106v-141h-106v-230z" />
    <glyph glyph-name="g" unicode="g" 
d="M363 -113q0 -11 -4 -23.5t-13 -23t-23.5 -17t-35.5 -6.5h-236v140h171v44q-35 0 -68 0.5t-67 0.5q-19 0 -31 6t-18.5 16.5t-9 23.5t-2.5 28v275q1 27 15 48t49 21h272zM224 279q-22 0 -33.5 -1.5t-16.5 -8t-6 -21t-1 -39.5q0 -34 4.5 -50.5t21.5 -16.5h29z" />
    <glyph glyph-name="h" unicode="h" 
d="M24 3l-1 602h141l1 -183q61 -2 99 -3t59.5 -7.5t29.5 -21t8 -42.5v-345h-140v234q0 21 -4.5 30.5t-12 12.5t-18 2.5t-22.5 -0.5v-279h-140z" />
    <glyph glyph-name="i" unicode="i" horiz-adv-x="193" 
d="M168 421h-141v-418h141v418zM77 605h41q20 0 34.5 -14.5t14.5 -34.5v-42q0 -20 -14.5 -34t-34.5 -14h-41q-20 0 -34.5 14t-14.5 34v42q0 20 14.5 34.5t34.5 14.5z" />
    <glyph glyph-name="j" unicode="j" horiz-adv-x="193" 
d="M166 420v-534q0 -11 -4 -23t-13 -22.5t-23.5 -17.5t-35.5 -7h-130v141h65v463h141zM117 606q20 0 34.5 -14.5t14.5 -34.5v-42q0 -20 -14.5 -34t-34.5 -14h-42q-20 0 -34 14t-14 34v42q0 20 14 34.5t34 14.5h42z" />
    <glyph glyph-name="k" unicode="k" horiz-adv-x="381" 
d="M168 284l51 139h140l-62 -170l8 -3q36 -14 47.5 -37t11.5 -48v-162h-141v101q0 20 -3 31.5t-10 17.5t-17 8.5t-25 5.5v-164h-141v601h141v-320z" />
    <glyph glyph-name="l" unicode="l" horiz-adv-x="189" 
d="M168 3h-141v650h141v-650z" />
    <glyph glyph-name="m" unicode="m" horiz-adv-x="578" 
d="M27 422h470q19 0 31.5 -6t19 -16t9 -23t2.5 -27v-347h-141v211q0 38 -4.5 53t-21.5 15h-27l-2 -279h-141l1 254q-4 25 -24 25h-29v-279h-141z" />
    <glyph glyph-name="n" unicode="n" horiz-adv-x="386" 
d="M27 422h277q38 0 49.5 -21.5t11.5 -50.5v-347h-141v211q0 38 -4 53t-22 15h-29v-279h-141z" />
    <glyph glyph-name="o" unicode="o" 
d="M23 351q0 39 21 55t49 16h198q29 0 48 -18t19 -55l1 -275q0 -35 -19.5 -52.5t-43.5 -17.5h-200q-41 0 -56.5 21t-16.5 49v277zM191 144q11 0 16.5 2.5t8 10t2.5 21v34.5q-1 20 -1.5 33.5t-2.5 21.5t-7.5 11.5t-15.5 3.5q-11 0 -17 -2.5t-8.5 -10t-3 -21.5t-0.5 -36
t1 -35.5t4 -20.5t8.5 -9.5t15.5 -2.5z" />
    <glyph glyph-name="p" unicode="p" horiz-adv-x="385" 
d="M277 422q20 0 36.5 -2.5t28 -10.5t17.5 -22t6 -38v-272q0 -29 -8 -43.5t-29.5 -20.5t-60 -7.5t-98.5 -3.5l-1 -183h-141l2 602zM170 144q19 0 30 0.5t16.5 4.5t7 12.5t1.5 25.5q0 10 0.5 27t0.5 23q0 21 -4.5 30t-12 12t-17.5 2.5t-22 0.5v-138z" />
    <glyph glyph-name="q" unicode="q" horiz-adv-x="371" 
d="M351 419l1 -601h-141l-1 163q-62 32 -100 50t-59.5 33t-29 31t-7.5 45v207q0 47 23.5 60.5t64.5 12.5zM211 126v152q-20 0 -31 1t-16 -2t-6.5 -12t-1.5 -29q0 -38 1 -56.5t6 -28t16 -13.5z" />
    <glyph glyph-name="r" unicode="r" horiz-adv-x="258" 
d="M27 349q0 41 18 57t56 16l148 -1v-143q0 1 -9.5 1h-23t-27.5 -0.5t-23 -0.5v-64v-40.5v-29.5v-30.5v-43.5v-68l-140 2z" />
    <glyph glyph-name="s" unicode="s" horiz-adv-x="337" 
d="M303 422q-1 -25 0 -59.5t0 -59.5h-128q-8 -6 -2 -20q12 -5 31 -10l38.5 -10.5t36.5 -11.5t27 -13q11 -8 15 -33q1 -9 1.5 -23t0.5 -29t-0.5 -29.5t-1.5 -23.5q-1 -13 -15 -28t-31 -29l-21 -17.5t-20.5 -13t-27.5 -8t-43 -2.5q-12 0 -30.5 -0.5t-38.5 -0.5h-38.5t-29.5 1
v126h109q29 0 38 3t8 14q0 8 -12 10.5t-32 8.5t-41 11.5t-39 12.5q-17 6 -25.5 10t-12 10t-4 14t-0.5 21t3 31t7.5 37t9.5 36t10 27q7 14 14 22.5t16 13.5t21 7t29 3q45 2 90 2.5t88 -0.5z" />
    <glyph glyph-name="t" unicode="t" horiz-adv-x="262" 
d="M163 423h79v-141h-79v-139h81v-140h-146q-21 0 -35.5 7t-23 17.5t-12.5 22.5t-4 23v459h140v-109z" />
    <glyph glyph-name="u" unicode="u" horiz-adv-x="386" 
d="M166 421v-209q0 -22 1 -35.5t4 -20.5t8.5 -9.5t15.5 -2.5q11 0 16.5 2.5t8 10t2.5 21v34.5v209h140l1 -347q0 -35 -19.5 -52.5t-43.5 -17.5h-200q-41 0 -56.5 21t-16.5 49v347h139z" />
    <glyph glyph-name="v" unicode="v" horiz-adv-x="371" 
d="M187 225l42 196h141l-91 -418h-184l-92 418h141z" />
    <glyph glyph-name="w" unicode="w" horiz-adv-x="534" 
d="M185 225l80 177h5l80 -177l43 196h141l-90 -418h-146l-31 76l-27 -76h-148l-91 418h141z" />
    <glyph glyph-name="x" unicode="x" horiz-adv-x="393" 
d="M274 212l118 -209h-151l-42 75l-43 -75h-150l117 209l-117 209h150l43 -75l42 75h151z" />
    <glyph glyph-name="y" unicode="y" horiz-adv-x="371" 
d="M376 421l-178 -602h-145l63 230l-117 372h153l35 -153l36 153h153z" />
    <glyph glyph-name="z" unicode="z" 
d="M372 421l-141 -279h132v-141l-353 1l142 279h-134v140h354z" />
    <glyph glyph-name="dollar" unicode="$" horiz-adv-x="354" 
d="M309 431q-8 0 -26 -0.5t-37.5 -0.5h-37h-25.5q-8 -7 -2 -19q12 -5 31 -10l38.5 -10.5t36.5 -11.5t27 -13q7 -5 10 -12t5 -21q1 -9 1.5 -23.5t0.5 -29.5t-0.5 -29t-0.5 -23q-2 -13 -16 -28.5t-31 -29.5q-11 -8 -18.5 -15t-16.5 -12v-70h-141v56h-27.5t-23.5 1v126
q12 -1 37.5 -1h49.5q29 1 38 4t9 14q-1 7 -13 10l-32 8l-41 12t-39 12q-16 6 -24.5 10t-12.5 10t-4 14v22q0 12 3 30.5t7.5 37t9.5 35.5t10 27q7 15 12.5 22.5t14.5 11.5l11.5 4.5t14.5 4.5v61h141v-55h32t31 -1z" />
    <glyph glyph-name="asciicircum" unicode="^" horiz-adv-x="387" 
d="M236 329l-42 129l-43 -129h-141l91 276h184l92 -276h-141z" />
    <glyph glyph-name="cent" unicode="&#xa2;" horiz-adv-x="395" 
d="M27 351q0 39 21 55t49 16h28v92h141v-92h29q29 0 48 -18t19 -55v-116h-141q-1 18 -1 27.5t-2.5 14.5t-7.5 5.5t-15 0.5q-11 0 -17 -1t-8.5 -6t-3 -17t-0.5 -34q0 -26 0.5 -41.5t2.5 -24t8 -11t18 -2.5h168v-140h-97v-92h-141v92h-25q-41 0 -56.5 21t-15.5 49z" />
    <glyph glyph-name="sterling" unicode="&#xa3;" horiz-adv-x="366" 
d="M48 239l-29 1v88h73l-32 136q-8 42 -3.5 69t21 43t43.5 22t65 6h161v-142h-138l36 -134h101v-88l-147 -1v-96h148v-141l-300 -1z" />
    <glyph glyph-name="Euro" unicode="&#x20ac;" horiz-adv-x="564" 
d="M83 531q0 21 6.5 35t17 22t24 11.5t28.5 3.5h374v-141h-281q-10 0 -15.5 -1t-8.5 -4.5t-3.5 -11t-0.5 -20.5v-11h158v-91h-158v-41h158v-91h-158v-7q0 -27 5 -34.5t22 -7.5h59t81.5 0.5t82 0.5h60.5v-141l-376 -1q-33 0 -54 18.5t-21 52.5v119h-55v91h55v41h-55v91h55
v117v0z" />
    <glyph glyph-name="colon" unicode=":" horiz-adv-x="210" 
d="M125 1h-42q-20 0 -34.5 14.5t-14.5 34.5v41q0 20 14.5 34.5t34.5 14.5h42q20 0 34.5 -14.5t14.5 -34.5v-41q0 -20 -14.5 -34.5t-34.5 -14.5zM125 232h-42q-20 0 -34.5 14t-14.5 34v42q0 20 14.5 34.5t34.5 14.5h42q20 0 34.5 -14.5t14.5 -34.5v-42q0 -20 -14.5 -34
t-34.5 -14z" />
    <glyph glyph-name="semicolon" unicode=";" horiz-adv-x="214" 
d="M23 -69h141l28 210h-141zM141 232h-42q-20 0 -34.5 14t-14.5 34v42q0 20 14.5 34.5t34.5 14.5h42q20 0 34 -14.5t14 -34.5v-42q0 -20 -14 -34t-34 -14z" />
    <glyph glyph-name="braceleft" unicode="{" horiz-adv-x="280" 
d="M28 139l60 159l-60 169v281h220v-140h-79v-140l60 -167l-60 -160v-144h79v-141h-220v283z" />
    <glyph glyph-name="braceright" unicode="}" horiz-adv-x="279" 
d="M256 -144h-220v141h79v144l-60 160l60 167v140h-79v140h220v-281l-60 -169l60 -159v-283z" />
    <glyph glyph-name="bracketleft" unicode="[" horiz-adv-x="280" 
d="M32 748h220v-140h-79v-611h79v-141h-220v892z" />
    <glyph glyph-name="bracketright" unicode="]" horiz-adv-x="280" 
d="M252 -144h-220v141h79v611h-79v140h220v-892z" />
    <glyph glyph-name="parenleft" unicode="(" horiz-adv-x="292" 
d="M285 688q-115 -192 -117 -384t117 -388h-158q-46 95 -71 190.5t-26.5 192t22 194t75.5 195.5h158z" />
    <glyph glyph-name="parenright" unicode=")" horiz-adv-x="296" 
d="M11 -84q115 192 117 384t-117 388h158q46 -95 71 -190t26.5 -191.5t-22 -194t-75.5 -196.5h-158z" />
    <glyph glyph-name="less" unicode="&#x3c;" horiz-adv-x="292" 
d="M276 690l-113 -390l113 -382l-141 -2l-113 384l113 388z" />
    <glyph glyph-name="greater" unicode="&#x3e;" horiz-adv-x="300" 
d="M169 688l113 -388l-113 -384l-141 2l113 382l-113 390z" />
    <glyph glyph-name="asterisk" unicode="*" horiz-adv-x="440" 
d="M147 303l-53 -29l-68 123l46 25l-46 25l68 124l53 -30v61h141v-61l53 30l68 -124l-45 -25l45 -25l-68 -123l-53 29v-60h-141v60z" />
    <glyph glyph-name="ampersand" unicode="&#x26;" horiz-adv-x="436" 
d="M322 464q-53 0 -83 0.5t-45 -2.5t-19 -12.5t-4 -28.5q0 -8 0.5 -13.5t1.5 -10.5q3 -28 14.5 -30.5t43.5 8.5v-138q-28 -11 -44 -22t-16 -28t3.5 -26t13 -13t27.5 -4.5t48 -0.5v249h141v-391q-69 0 -138 0.5t-138 -0.5q-27 0 -45.5 7t-30 18.5t-16 26.5t-4.5 32v149
q0 26 15.5 45t38.5 25q-23 8 -38.5 27t-16.5 44v154q0 10 3.5 23t13 24.5t25.5 19.5t42 8h207v-140z" />
    <glyph glyph-name="numbersign" unicode="#" horiz-adv-x="506" 
d="M426 496l55 8v-141l-55 -7v-61l55 7v-141l-55 -7v-153h-140v134l-61 -8v-126h-141v107l-55 -7v141l55 7v61l-55 -8v141l55 7v153h141v-134l61 9v125h140v-107zM225 329v-61l61 8v61z" />
    <glyph glyph-name="question" unicode="?" horiz-adv-x="333" 
d="M161 140q20 0 34.5 -14.5t14.5 -34.5v-41q0 -20 -14.5 -34.5t-34.5 -14.5h-42q-20 0 -34.5 14.5t-14.5 34.5v41q0 20 14.5 34.5t34.5 14.5h42zM218 604q27 0 45.5 -6.5t30 -18t16 -27t4.5 -31.5v-149q-1 -28 -9 -44.5t-21.5 -27.5t-32.5 -19t-41 -19v-78h-140l-1 169
q48 16 76.5 29.5t28.5 36.5q0 20 -5 29t-20.5 12t-45.5 2.5t-79 -0.5v142h194z" />
    <glyph glyph-name="at" unicode="@" horiz-adv-x="675" 
d="M548 604q38 0 64.5 -26.5t26.5 -64.5v-421q0 -38 -26.5 -65t-64.5 -27h-112q-27 0 -51.5 19.5t-24.5 59.5v51q-25 -1 -50 -1h-51q-22 0 -34 5.5t-18 14t-7.5 19t-1.5 21.5v90q0 24 10 42.5t41 20.5q5 0 22.5 0.5t36.5 0.5t34 0.5t17 1.5q3 2 5 7.5t1.5 11t-3.5 10t-8 4.5
h-27h-69l-1 98h162q30 -2 43.5 -17t13.5 -45q0 -85 0.5 -168t0.5 -167h71q13 0 13 13v421q0 13 -13 13h-421q-13 0 -13 -13v-421q0 -13 13 -13h156v-78h-156q-38 0 -64.5 26.5t-26.5 64.5v421q0 38 26.5 64.5t64.5 26.5h421zM360 223v40h-25q-8 0 -12.5 -6.5t-4 -14
t5.5 -13.5t15 -6h21z" />
    <glyph glyph-name="quotedblright" unicode="&#x201d;" horiz-adv-x="374" 
d="M231 467q-14 6 -19.5 18t-5.5 28v41q0 20 14.5 34.5t34.5 14.5h42q20 0 34.5 -14.5t14.5 -34.5v-41q0 -14 -5 -30t-11.5 -32.5t-14 -32t-13.5 -26.5h-75l10 75h-6zM51 467q-14 6 -19.5 18t-5.5 28v41q0 20 14.5 34.5t34.5 14.5h42q20 0 34.5 -14.5t14.5 -34.5v-41
q0 -14 -5 -30t-11.5 -32.5t-14 -32t-13.5 -26.5h-75l10 75h-6z" />
    <glyph glyph-name="period" unicode="." horiz-adv-x="193" 
d="M79 1q-20 0 -34.5 14.5t-14.5 34.5v41q0 20 14.5 34.5t34.5 14.5h41q20 0 34.5 -14.5t14.5 -34.5v-41q0 -20 -14.5 -34.5t-34.5 -14.5h-41z" />
    <glyph glyph-name="quotedbl" unicode="&#x22;" horiz-adv-x="374" 
d="M209 393v210h141v-210h-141zM32 393v210h141v-210h-141z" />
    <glyph glyph-name="comma" unicode="," horiz-adv-x="218" 
d="M32 -69l27 210h141l-27 -210h-141z" />
    <glyph glyph-name="exclam" unicode="!" horiz-adv-x="198" 
d="M32 184v419h141v-419h-141zM81 1q-20 0 -34 14.5t-14 34.5v41q0 20 14 34.5t34 14.5h42q20 0 34.5 -14.5t14.5 -34.5v-41q0 -20 -14.5 -34.5t-34.5 -14.5h-42z" />
    <glyph glyph-name="asciitilde" unicode="~" horiz-adv-x="379" 
d="M357 253l-50 -16t-33 -6.5t-32.5 4.5t-48.5 17q-30 9 -48 13.5t-34 4t-35 -5t-50 -12.5v141q33 7 53 12t37.5 5.5t36.5 -3.5t50 -14q29 -12 45.5 -17t30.5 -5t31 5.5t47 16.5v-140v0z" />
    <glyph glyph-name="underscore" unicode="_" horiz-adv-x="411" 
d="M386 2h-354v141h354v-141z" />
    <glyph glyph-name="equal" unicode="=" horiz-adv-x="280" 
d="M249 341h-217v141h217v-141zM249 160h-217v141h217v-141z" />
    <glyph glyph-name="plus" unicode="+" horiz-adv-x="334" 
d="M304 393v-141h-64v-64h-141v64h-65v141h65v64h141v-64h64v0z" />
    <glyph glyph-name="slash" unicode="/" horiz-adv-x="350" 
d="M346 603l-188 -602h-154l188 602h154z" />
    <glyph glyph-name="Z" unicode="Z" horiz-adv-x="360" 
d="M205 139h137v-141h-337l151 461h-130v141h331z" />
    <glyph glyph-name="ydieresis" unicode="&#xff;" horiz-adv-x="394" 
 />
    <glyph glyph-name="zero" unicode="0" horiz-adv-x="386" 
d="M23 528q0 42 23 57t53 15h96t97 1q10 0 22 -5t22.5 -14t17 -22.5t6.5 -31.5v-459q0 -27 -16.5 -48.5t-54.5 -21.5q-48 0 -95.5 -0.5t-95.5 -0.5q-33 0 -54 18.5t-21 52.5v459zM187 139q19 0 25.5 7t6.5 34v242q0 26 -4 31.5t-23 5.5q-10 0 -15.5 -1t-8.5 -4.5t-3.5 -11
t-0.5 -20.5v-241q0 -27 4.5 -34.5t18.5 -7.5z" />
    <glyph glyph-name="quotesingle" unicode="'" horiz-adv-x="194" 
d="M28 393v210h141v-210h-141z" />
    <glyph glyph-name="grave" unicode="`" horiz-adv-x="253" 
d="M127 554l-108 148h118l108 -148h-118z" />
    <glyph glyph-name="ellipsis" unicode="&#x2026;" horiz-adv-x="560" 
d="M79 1q-20 0 -34.5 14.5t-14.5 34.5v41q0 20 14.5 34.5t34.5 14.5h41q20 0 34.5 -14.5t14.5 -34.5v-41q0 -20 -14.5 -34.5t-34.5 -14.5h-41zM260 1q-20 0 -34.5 14.5t-14.5 34.5v41q0 20 14.5 34.5t34.5 14.5h41q20 0 34.5 -14.5t14.5 -34.5v-41q0 -20 -14.5 -34.5
t-34.5 -14.5h-41zM441 1q-20 0 -34.5 14.5t-14.5 34.5v41q0 20 14.5 34.5t34.5 14.5h41q20 0 34.5 -14.5t14.5 -34.5v-41q0 -20 -14.5 -34.5t-34.5 -14.5h-41z" />
    <glyph glyph-name="quotedblleft" unicode="&#x201c;" horiz-adv-x="387" 
d="M151 528q14 -6 19.5 -18t5.5 -28v-41q0 -20 -14.5 -34.5t-34.5 -14.5h-42q-20 0 -34.5 14.5t-14.5 34.5v41q0 13 5 29.5t11.5 33t14 32t13.5 26.5h75l-10 -75h6zM331 528q14 -6 19.5 -18t5.5 -28v-41q0 -20 -14.5 -34.5t-34.5 -14.5h-42q-20 0 -34.5 14.5t-14.5 34.5v41
q0 13 5 29.5t11.5 33t14 32t13.5 26.5h75l-10 -75h6z" />
    <glyph glyph-name="quoteleft" unicode="&#x2018;" horiz-adv-x="202" 
d="M151 528q14 -6 19.5 -18t5.5 -28v-41q0 -20 -14.5 -34.5t-34.5 -14.5h-42q-20 0 -34.5 14.5t-14.5 34.5v41q0 13 5 29.5t11.5 33t14 32t13.5 26.5h75l-10 -75h6z" />
    <glyph glyph-name="quoteright" unicode="&#x2019;" horiz-adv-x="198" 
d="M55 467q-14 6 -19.5 18t-5.5 28v41q0 20 14.5 34.5t34.5 14.5h42q20 0 34.5 -14.5t14.5 -34.5v-41q0 -14 -5 -30t-11.5 -32.5t-14 -32t-13.5 -26.5h-75l10 75h-6z" />
    <glyph glyph-name="trademark" unicode="&#x2122;" horiz-adv-x="506" 
d="M28 600h174v-84h-46v-273h-83v273h-45v84zM223 599l102 1l25 -111l24 111h102v-357h-83v160l-42 -144h-4l-41 143v-159h-83v356z" />
    <glyph glyph-name="bar" unicode="|" horiz-adv-x="206" 
d="M174 -87h-141v772h141v-772z" />
    <glyph glyph-name="Adieresis" unicode="&#xc4;" horiz-adv-x="475" 
 />
    <glyph glyph-name="Aring" unicode="&#xc5;" horiz-adv-x="371" 
 />
    <glyph glyph-name="percent" unicode="%" horiz-adv-x="682" 
d="M511 600l-84 -269h148q35 0 59.5 -24t24.5 -59v-167q0 -35 -24.5 -59.5t-59.5 -24.5h-167q-23 0 -42 11.5t-30 29.5l-13 -40h-154l83 267h-146q-35 0 -59.5 24t-24.5 59v168q0 35 24.5 59t59.5 24h167q23 0 41.5 -11t29.5 -29l13 41h154zM148 474v-84h83v84h-83zM450 206
v-83h83v83h-83z" />
    <glyph glyph-name="backslash" unicode="\" horiz-adv-x="361" 
d="M352 -2h-155l-188 602h154z" />
    <glyph glyph-name="hyphen" unicode="-" horiz-adv-x="282" 
d="M33 205v140h217v-140h-217z" />
    </font>
</defs>
</svg>
